inDegrees=yes
name=ik_S42_A04_T02
DataType=double
version=3
OpenSimVersion=4.3-2021-08-27-4bc7ad9
endheader
time	pelvis_tilt	pelvis_list	pelvis_rotation	pelvis_tx	pelvis_ty	pelvis_tz	hip_flexion_r	hip_adduction_r	hip_rotation_r	knee_angle_r	knee_angle_r_beta	ankle_angle_r	subtalar_angle_r	mtp_angle_r	hip_flexion_l	hip_adduction_l	hip_rotation_l	knee_angle_l	knee_angle_l_beta	ankle_angle_l	subtalar_angle_l	mtp_angle_l	lumbar_extension	lumbar_bending	lumbar_rotation	arm_flex_r	arm_add_r	arm_rot_r	elbow_flex_r	pro_sup_r	wrist_flex_r	wrist_dev_r	arm_flex_l	arm_add_l	arm_rot_l	elbow_flex_l	pro_sup_l	wrist_flex_l	wrist_dev_l
12.21999999999983	1.659386037454498	-2.761339057767398	27.14477412495441	0	0.9399999999999999	0	14.19305673630066	-0.7646345261726443	-10.25334639288402	17.88455251868407	0.3121443266968818	0	0	0	16.12166165129536	-4.496062193488196	-8.361415683115744	24.23164106977705	0.4229219198290906	0	0	0	0	0	0	25.27839010765923	-25.27839010765923	3.80097517664856	69.06059345398597	86.19902503880564	0	0	25.27839010765923	-25.27839010765923	3.80097517664856	69.06059345398597	86.19902503858229	0	0
12.23999999999983	1.315554392435979	-3.336435006975344	27.07788460348499	0	0.9399999999999999	0	15.96813133891432	-0.6146876192044429	-10.67558518555839	19.49618606996862	0.340272638502406	0	0	0	17.70039501869327	-4.70055274076576	-9.721466323140683	25.8440004650736	0.4510629000024801	0	0	0	0	0	0	25.28777436278821	-25.28777436278821	3.802099321766864	69.07596297222197	86.19790089374797	0	0	25.28777436278821	-25.28777436278821	3.802099321766864	69.07596297222197	86.19790089352485	0	0
12.25999999999983	1.158748304006657	-3.565090053323833	26.9968943656147	0	0.9399999999999999	0	18.88263714668673	-0.63086859889366	-11.60942725372094	22.50802592433265	0.3928391605038448	0	0	0	19.05300520144765	-4.795373204098814	-9.901284166021965	27.57285075072041	0.4812370297610614	0	0	0	0	0	0	25.51875467894348	-25.51875467894348	3.825636228412287	69.39292374647678	86.17436398834141	0	0	25.51875467894348	-25.51875467894348	3.825636228412287	69.39292374647678	86.17436398812266	0	0
12.27999999999983	0.723928870918401	-4.08519067866767	26.76936363200092	0	0.9399999999999999	0	19.50144878637528	-0.3244462298995349	-11.49761545214997	22.77167651001358	0.3974407312987884	0	0	0	19.68104535337673	-5.064430756690995	-9.921617670126746	28.24468442050124	0.4929627393244932	0	0	0	0	0	0	25.52370806326519	-25.52370806326519	3.826223568580337	69.40094101030995	86.17377664820498	0	0	25.52370806326519	-25.52370806326519	3.826223568580337	69.40094101030995	86.17377664798636	0	0
12.29999999999983	0.3548826590322982	-4.437701046114215	26.48471838167455	0	0.9399999999999999	0	21.37581145995486	-0.294243939403491	-11.04981414739166	24.60742114835785	0.4294805194637285	0	0	0	21.4185282504462	-5.044125683241719	-9.19782397019693	29.92131009611334	0.5222253776873987	0	0	0	0	0	0	25.5287425921015	-25.5287425921015	3.826821665895012	69.40910619868039	86.1731785509225	0	0	25.5287425921015	-25.5287425921015	3.826821665895012	69.40910619868039	86.17317855070405	0	0
12.31999999999983	-0.0356245112325733	-4.634933053317946	26.28799309887824	0	0.9399999999999999	0	21.79170434181321	-0.3066844952243688	-10.83984908181071	25.5857501784525	0.4465555822067229	0	0	0	21.81736482257788	-5.105564934084093	-9.36347060189104	29.92383412237595	0.5222694302560882	0	0	0	0	0	0	25.53379659431455	-25.53379659431455	3.827419442228577	69.41726388196597	86.1725807746212	0	0	25.53379659431455	-25.53379659431455	3.827419442228577	69.41726388196597	86.17258077440283	0	0
12.33999999999983	-0.4540075691534261	-4.782367928264419	26.18951025139116	0	0.9399999999999999	0	25.00046638688544	-0.6610290147661873	-11.28003165659066	28.74452687626654	0.5016866359188518	0	0	0	25.6116382977753	-4.886843356531302	-11.01409329707793	33.72775260234825	0.5886603322090627	0	0	0	0	0	0	25.74363794660158	-25.74363794660158	3.848638732907426	69.70279338642584	86.15136148505769	0	0	25.74363794660158	-25.74363794660158	3.848638732907426	69.70279338642584	86.15136148484324	0	0
12.35999999999983	-0.9487288382838688	-5.043513542639106	26.12879958915522	0	0.9399999999999999	0	26.98018300227666	-0.7820223550885353	-11.12214326975779	30.54090040923132	0.5330392686647701	0	0	0	27.42786928210965	-5.026576680336806	-11.10230449730572	35.63101862055587	0.621878590768108	0	0	0	0	0	0	25.74899129937617	-25.74899129937617	3.84926889190389	69.71138390195536	86.15073132609513	0	0	25.74899129937617	-25.74899129937617	3.84926889190389	69.71138390195536	86.15073132588078	0	0
12.37999999999982	-1.424955611604832	-5.480179760829508	26.13077501370428	0	0.9399999999999999	0	28.91204544174991	-0.7924291352615931	-11.23412568400707	32.19191233051944	0.5618548626809253	0	0	0	29.29008054832436	-5.144731593394281	-11.06311615981965	38.08903135269081	0.6647790059998041	0	0	0	0	0	0	25.75378796803779	-25.75378796803779	3.849831842246623	69.71905623919804	86.15016837578266	0	0	25.75378796803779	-25.75378796803779	3.849831842246623	69.71905623919804	86.15016837556843	0	0
12.39999999999982	-1.620831737383532	-5.713875828483946	26.14603199203961	0	0.9399999999999999	0	30.55000687104004	-0.7935049894887519	-11.32169325655871	33.90115100252637	0.5916867052098617	0	0	0	30.8048189489038	-5.239007937904252	-11.20350043324854	39.86040015330143	0.6956952238375623	0	0	0	0	0	0	25.75842794962512	-25.75842794962512	3.850378025529584	69.72650165801498	86.14962219252909	0	0	25.75842794962512	-25.75842794962512	3.850378025529584	69.72650165801498	86.14962219231492	0	0
12.41999999999982	-1.89517101254117	-6.134404741554421	26.14914608682481	0	0.9399999999999999	0	32.48426202437555	-0.7949645820038352	-11.04379817818189	35.53440599883277	0.620192382420056	0	0	0	32.54394515904158	-5.566962891314727	-11.10061020150075	41.78514478597621	0.7292883549378262	0	0	0	0	0	0	25.76356002777482	-25.76356002777482	3.850982396738039	69.73474038015017	86.14901782135315	0	0	25.76356002777482	-25.76356002777482	3.850982396738039	69.73474038015017	86.14901782113914	0	0
12.43999999999982	-2.227929412229005	-6.539878458004293	26.0844293550096	0	0.9399999999999999	0	34.5099661842609	-0.7311889205323259	-10.88221965737216	37.39605716129997	0.6526843247286886	0	0	0	34.34411655934756	-5.830038439938015	-10.97194181813324	43.71888214273405	0.7630384386820626	0	0	0	0	0	0	25.76820204703478	-25.76820204703478	3.851528234308227	69.74218014289428	86.14847198381239	0	0	25.76820204703478	-25.76820204703478	3.851528234308227	69.74218014289428	86.14847198359836	0	0
12.45999999999982	-2.658389961867137	-6.93173779141792	25.94152962058102	0	0.9399999999999999	0	36.63686211927554	-0.7878129888827836	-10.76121254834879	39.44107832340327	0.688376677280352	0	0	0	36.23979851181094	-5.992621365059996	-10.83765853307505	45.6135897151774	0.796107324183668	0	0	0	0	0	0	25.77378980593123	-25.77378980593123	3.852185441741256	69.75113785086577	86.14781477641469	0	0	25.77378980593123	-25.77378980593123	3.852185441741256	69.75113785086577	86.14781477620078	0	0
12.47999999999982	-2.659643078108883	-6.932638660798037	25.94195315313846	0	0.9399999999999999	0	38.11988170313821	-0.9560521213056887	-10.92526302165866	41.35921246754901	0.7218544335906185	0	0	0	37.59286262907136	-6.192169921962472	-10.52120897404051	47.5659341635366	0.8301821629405686	0	0	0	0	0	0	25.77895826696588	-25.77895826696588	3.852793908044839	69.75943163979899	86.1472063101439	0	0	25.77895826696588	-25.77895826696588	3.852793908044839	69.75943163979899	86.1472063099301	0	0
12.49999999999982	-3.655848210785999	-7.581847361547625	25.97871165541762	0	0.9399999999999999	0	40.70218832096754	-1.173786144408974	-11.210313920498	43.16226895039197	0.7533237058156569	0	0	0	40.19637592838439	-6.471343559331614	-9.975569960079973	49.61545882875379	0.865953116449443	0	0	0	0	0	0	25.78836502665319	-25.78836502665319	3.853897583577237	69.77447067834355	86.14610263467094	0	0	25.78836502665319	-25.78836502665319	3.853897583577237	69.77447067834355	86.14610263445731	0	0
12.51999999999982	-3.885714798684375	-7.855227237074079	25.99494514665261	0	0.9399999999999999	0	42.36432698040591	-1.209605474793705	-11.78344445870577	44.82747609534893	0.7823870532228905	0	0	0	41.95465425329781	-6.68357125340373	-9.685635402213927	51.55777367119164	0.8998529055603384	0	0	0	0	0	0	25.79258313370499	-25.79258313370499	3.854393256823088	69.78122565152148	86.14560696145176	0	0	25.79258313370499	-25.79258313370499	3.854393256823088	69.78122565152148	86.14560696123819	0	0
12.53999999999982	-3.884751206387726	-7.842067733927909	25.99008405536857	0	0.9399999999999999	0	43.82455504512443	-1.443269199081674	-11.79074014227083	46.50070966392693	0.8115904881494708	0	0	0	43.33835170132888	-6.779261447066601	-9.43700717462694	53.47071742848318	0.9332400725305472	0	0	0	0	0	0	25.79807176615542	-25.79807176615542	3.855039043966008	69.79002702613374	86.14496117434351	0	0	25.79807176615542	-25.79807176615542	3.855039043966008	69.79002702613374	86.14496117413019	0	0
12.55999999999982	-4.499203520432122	-8.639275320604272	26.17040265580827	0	0.9399999999999999	0	46.29423259470675	-1.648567654320215	-12.27801179537022	49.06701585044299	0.8563809807184758	0	0	0	44.28532549872729	-6.95372261996374	-8.88998994833195	53.99336437787217	0.9423619826228891	0	0	0	0	0	0	25.80673996172941	-25.80673996172941	3.85604865130753	69.80377476340317	86.14395156705632	0	0	25.80673996172941	-25.80673996172941	3.85604865130753	69.80377476340317	86.14395156684314	0	0
12.57999999999982	-4.659196712051384	-8.910712550827521	26.24331144476644	0	0.9399999999999999	0	48.16690385142468	-1.956288988856759	-12.23361389210636	51.21384018110432	0.8938501337504393	0	0	0	46.02917042227944	-7.218421543918805	-8.210248147350784	55.95748129132433	0.9766422896567378	0	0	0	0	0	0	25.81213588009645	-25.81213588009645	3.856682434034064	69.81241085698116	86.14331778436394	0	0	25.81213588009645	-25.81213588009645	3.856682434034064	69.81241085698116	86.14331778415087	0	0
12.59999999999982	-4.84269680252847	-9.237698387833902	26.29970430297873	0	0.9399999999999999	0	50.02574208333638	-2.265376781443193	-12.18888784898762	53.29670595764365	0.9302029994281591	0	0	0	46.36633368068136	-7.304289011541838	-7.99678933638905	55.95654948260907	0.9766260265266578	0	0	0	0	0	0	25.81951517725511	-25.81951517725511	3.857547454550374	69.82419550768982	86.14245276389414	0	0	25.81951517725511	-25.81951517725511	3.857547454550374	69.82419550768982	86.14245276368126	0	0
